<?xml version="1.0" encoding="UTF-8"?><svg id="Calque_2" xmlns="http://www.w3.org/2000/svg" viewBox="0 0 744 955.2"><defs><style>.cls-1{fill:#8c8c8c;stroke-width:0px;}</style></defs><g id="Calque_1-2"><path class="cls-1" d="M714.7,438.36c-18.36-43.44-44.45-82.49-77.64-116.14l-105.22,105.22c39.22,40.22,63.36,95.16,63.36,155.76,0,123.26-99.94,223.2-223.2,223.2s-223.2-99.94-223.2-223.2c0-61.63,24.98-117.43,65.38-157.82l-105.22-105.22c-34.13,34.1-60.91,73.87-79.66,118.2C9.86,484.32,0,533.04,0,583.2s9.86,98.88,29.3,144.84c18.74,44.33,45.53,84.1,79.66,118.2,34.1,34.13,73.87,60.91,118.2,79.66,45.96,19.44,94.68,29.3,144.84,29.3s98.88-9.86,144.84-29.3c44.33-18.74,84.1-45.53,118.2-79.66,34.13-34.1,60.91-73.87,79.66-118.2,19.44-45.96,29.3-94.68,29.3-144.84s-9.86-98.88-29.3-144.84Z"/><polygon class="cls-1" points="669.6 0 669.6 146.4 441.6 146.4 441.6 600 295.2 600 295.2 146.4 72 146.4 72 0 669.6 0"/></g></svg>